<?xml version="1.0" encoding="UTF-8"?>
<svg xmlns="http://www.w3.org/2000/svg" version="1.1" viewBox="0 0 157.7 190.2">
  <defs>
    <style>
      .cls-1 {
        fill: #81bc4e;
      }

      .cls-2 {
        fill: #007f5f;
      }
    </style>
  </defs>
  <!-- Generator: Adobe Illustrator 28.7.2, SVG Export Plug-In . SVG Version: 1.2.0 Build 154)  -->
  <g>
    <g id="Layer_1">
      <g id="acdSQG">
        <path class="cls-2" d="M157.7,0c-2.9,6-5,12.3-6.3,18.9-4.8,23.9-1.2,41,.3,64.3,2.3,33.8-20.9,64-46,83.8s-14,11-17.6,12.4-4.4-.5-6.8-.6c-.2-1,.3-1,.8-1.4,3.3-3,7.7-5.7,11.2-8.8,20.6-19,34.1-48.1,32.9-76.4,0-.6.4-1.9-.5-1.7-5.1,28.2-15.5,59.9-41.4,75.4,1.9-8.1,2.9-16.4,2.5-24.7-1.2-24.8-8.8-41-3.3-67.6C91.4,35.4,122.7,12,157.7,0Z"/>
        <path class="cls-1" d="M18.4,48.9c2.6,13.8,10.8,27.7,21.5,36.7s13.6,8.5,19.7,13.7c14.5,12.4,25.8,34.8,24.7,54.2-.8,13.8-7.8,24.6-13.5,36.7-.9.1-.4-1.1-.4-1.6.6-4.8,2.2-9.8,2.8-14.7,2.1-18.4-3.3-38.5-16.7-51.6-.4,0-.3.5-.2.7.6,1.5,3.5,5,4.6,6.9,10.1,18.1,14.6,38.3,6.7,58.2-1.9-4.7-3.1-9.5-5.4-14.1-11.5-22.4-30.8-21.7-46-38.3C-6.1,111.5-3.6,81.9,13.2,55.5c1.1-1.7,2.6-4.3,3.8-5.7s.5-1,1.4-.8h0Z"/>
      </g>
    </g>
  </g>
</svg>