<svg xmlns="http://www.w3.org/2000/svg" viewBox="0 0 310.38 91" fill="black" width="200px" hieght="auto"><defs></defs><path class="a" d="M42.39.88a5.25,5.25,0,0,1,5.81,0A126.89,126.89,0,0,1,61,10.12s1.11.77,1.14-.54c0,0-.18-3.86.29-5A2.28,2.28,0,0,1,64.61,3s5,.25,8.24.68a3.14,3.14,0,0,1,2.64,2.84S77.55,20.29,78,25.23c0,0,.4,2.52,4,6.79,0,0,7.36,10.33,8.27,12.37,0,0,1.73,3.6-2,4.07,0,0-6.77.68-7.41.84a1.69,1.69,0,0,0-1.52,1.83h0S79,75,77.25,86.48c0,0-.45,4.55-3,4.44,0,0-7-.23-8.56-.18,0,0-.71,0-.6-.93,0,0,3.54-37.24,1.13-56.08,0,0-.09-2.43-2-2.93,0,0-1.68-.68-3.3,1.55a59.14,59.14,0,0,0-11,33.6s-.2,6,.71,7.48c0,0,.56,1,3.44,1.28l3.65.49s.68,0,.62.89c0,0-.84,10.92-1.08,12.86A3.59,3.59,0,0,1,57,90.24s-.13.37-1.28.33c0,0-16.06-.12-17.87,0,0,0-.76.08-.92-.39s-1.12-14.11-1.08-16a1,1,0,0,1,.56-1,9.64,9.64,0,0,0,4.46-7.09A38.37,38.37,0,0,0,41,59.84s.59-21,.74-24.31c0,0,.13-1.13-1.36-1.35a1.38,1.38,0,0,0-1.66,1v.13s-1,13.82-.84,19.32c0,0,.35,3.58-2.12,3.65,0,0-2.41.36-2.52-2.61,0,0,.18-13.44.76-20.08a1.41,1.41,0,0,0-1.32-1.45A1.46,1.46,0,0,0,31,35.34v.12s-1,12.85-.84,19.64c0,0,.3,3.29-2.33,3.17,0,0-2.19.26-2.32-2.66,0,0,.6-18.4.76-19.83A1.48,1.48,0,0,0,25,34.11H24.8a1.39,1.39,0,0,0-1.58,1.2v.16s-1,22-.84,28.46c0,0-.09,6.65,4.81,9.34,0,0,.72.42.74,1,0,0,.55,11.68,1,15.44,0,0,.18.9-.62.9L16,91a2.54,2.54,0,0,1-2.52-2.39,276.43,276.43,0,0,1-2.13-37.27,1.85,1.85,0,0,0-1.5-2s-6.32-.59-7.85-1A2.62,2.62,0,0,1,.08,45.15a2.5,2.5,0,0,1,.28-.67A126.92,126.92,0,0,1,42.39.88Z"/></svg>